<?xml version="1.0" encoding="UTF-8" standalone="no"?>
<svg
   xmlns:dc="http://purl.org/dc/elements/1.1/"
   xmlns:cc="http://creativecommons.org/ns#"
   xmlns:rdf="http://www.w3.org/1999/02/22-rdf-syntax-ns#"
   xmlns:svg="http://www.w3.org/2000/svg"
   xmlns="http://www.w3.org/2000/svg"
   xmlns:sodipodi="http://sodipodi.sourceforge.net/DTD/sodipodi-0.dtd"
   xmlns:inkscape="http://www.inkscape.org/namespaces/inkscape"
   height="100px"
   width="100px"
   fill="#000000"
   data-name="Layer 1"
   viewBox="0 0 24 24"
   x="0px"
   y="0px"
   version="1.1"
   id="svg895"
   sodipodi:docname="trombone.svg"
   inkscape:version="0.92.5 (2060ec1f9f, 2020-04-08)">
  <metadata
     id="metadata901">
    <rdf:RDF>
      <cc:Work
         rdf:about="">
        <dc:format>image/svg+xml</dc:format>
        <dc:type
           rdf:resource="http://purl.org/dc/dcmitype/StillImage" />
        <dc:title>rounded</dc:title>
      </cc:Work>
    </rdf:RDF>
  </metadata>
  <defs
     id="defs899" />
  <sodipodi:namedview
     pagecolor="#ffffff"
     bordercolor="#666666"
     borderopacity="1"
     objecttolerance="10"
     gridtolerance="10"
     guidetolerance="10"
     inkscape:pageopacity="0"
     inkscape:pageshadow="2"
     inkscape:window-width="1864"
     inkscape:window-height="1016"
     id="namedview897"
     showgrid="false"
     inkscape:zoom="2.36"
     inkscape:cx="50"
     inkscape:cy="50"
     inkscape:window-x="56"
     inkscape:window-y="27"
     inkscape:window-maximized="1"
     inkscape:current-layer="svg895" />
  <title
     id="title891">rounded</title>
  <path
     d="M12,21.25A5.25574,5.25574,0,0,1,6.75,16V6.5a3.75,3.75,0,0,1,7.5,0v8.25a2.25,2.25,0,0,1-4.5,0V9a.75.75,0,0,1,1.5,0v5.75a.75.75,0,0,0,1.5,0V6.5a2.25,2.25,0,0,0-4.5,0V16a3.75,3.75,0,0,0,7.5,0V6a.75.75,0,0,1,1.5,0V16A5.25574,5.25574,0,0,1,12,21.25Z"
     id="path893"
     style="fill:#ffffff" />
</svg>
