<?xml version="1.0" encoding="UTF-8" standalone="no"?>
<svg
   xmlns:dc="http://purl.org/dc/elements/1.1/"
   xmlns:cc="http://creativecommons.org/ns#"
   xmlns:rdf="http://www.w3.org/1999/02/22-rdf-syntax-ns#"
   xmlns:svg="http://www.w3.org/2000/svg"
   xmlns="http://www.w3.org/2000/svg"
   xmlns:sodipodi="http://sodipodi.sourceforge.net/DTD/sodipodi-0.dtd"
   xmlns:inkscape="http://www.inkscape.org/namespaces/inkscape"
   height="100px"
   width="100px"
   fill="#000000"
   viewBox="0 0 64 64"
   x="0px"
   y="0px"
   version="1.1"
   id="svg869"
   sodipodi:docname="umlando.svg"
   inkscape:version="0.92.5 (2060ec1f9f, 2020-04-08)">
  <metadata
     id="metadata875">
    <rdf:RDF>
      <cc:Work
         rdf:about="">
        <dc:format>image/svg+xml</dc:format>
        <dc:type
           rdf:resource="http://purl.org/dc/dcmitype/StillImage" />
        <dc:title></dc:title>
      </cc:Work>
    </rdf:RDF>
  </metadata>
  <defs
     id="defs873" />
  <sodipodi:namedview
     pagecolor="#ffffff"
     bordercolor="#666666"
     borderopacity="1"
     objecttolerance="10"
     gridtolerance="10"
     guidetolerance="10"
     inkscape:pageopacity="0"
     inkscape:pageshadow="2"
     inkscape:window-width="1864"
     inkscape:window-height="1016"
     id="namedview871"
     showgrid="false"
     inkscape:zoom="4.19"
     inkscape:cx="14.500225"
     inkscape:cy="51.237183"
     inkscape:window-x="56"
     inkscape:window-y="27"
     inkscape:window-maximized="1"
     inkscape:current-layer="g867" />
  <g
     id="g867">
    <g
       aria-label="H"
       style="font-style:normal;font-variant:normal;font-weight:normal;font-stretch:normal;font-size:15.11139774px;line-height:1.25;font-family:'EB Garamond';-inkscape-font-specification:'EB Garamond';letter-spacing:0px;word-spacing:0px;fill:#000000;fill-opacity:1;stroke:none;stroke-width:0.37778491"
       id="text2845"
       transform="matrix(1.2033962,0,0,1.2033962,-6.8092307,-5.5084739)">
      <path
         d="m 15.610076,44.896844 q -0.317339,0 -0.634678,-0.136003 -0.272005,-0.181336 -0.272005,-0.498676 0,-0.725347 0.952018,-0.952018 1.586696,-0.362673 2.130707,-0.906684 0.589344,-0.589344 0.589344,-2.040038 V 19.7817 q 0,-1.496028 -0.54401,-2.085373 -0.498676,-0.589344 -2.085373,-0.997352 -0.997352,-0.226671 -0.997352,-0.952018 0,-0.317339 0.272005,-0.498676 0.317339,-0.181337 0.634679,-0.181337 1.042686,0 2.130707,0.04533 1.08802,0.04533 2.130707,0.136003 1.042686,0.04533 1.94937,0.04533 0.906684,0 2.040039,-0.04533 1.178689,-0.04533 2.357378,-0.09067 1.224023,-0.04533 2.221376,-0.04533 0.816015,0 0.816015,0.680013 0,0.408008 -0.272005,0.589345 -0.226671,0.181337 -0.680013,0.317339 -1.813368,0.498676 -2.402712,1.133355 -0.589345,0.634679 -0.589345,1.994705 v 8.160155 q 0,0.362673 0.181337,0.498676 0.226671,0.136002 0.54401,0.136002 h 11.968228 q 0.589344,0 0.589344,-0.634678 v -8.160155 q 0,-1.360026 -0.589344,-1.994705 -0.544011,-0.634679 -2.357378,-1.133355 -0.498677,-0.136002 -0.770682,-0.317339 -0.226671,-0.181337 -0.226671,-0.589345 0,-0.680013 0.86135,-0.680013 0.997352,0 2.221375,0.04533 1.224024,0.04533 2.402713,0.09067 1.178689,0.04533 2.085373,0.04533 0.861349,0 1.858702,-0.04533 1.042686,-0.09067 2.085373,-0.136003 1.08802,-0.04533 2.130707,-0.04533 0.362673,0 0.634678,0.181337 0.272006,0.181337 0.272006,0.498676 0,0.725347 -0.952018,0.952018 -1.632031,0.408008 -2.176042,1.042687 -0.498676,0.589344 -0.498676,2.040038 v 20.53639 q 0,1.496029 0.54401,2.085373 0.589345,0.544011 2.130708,0.906684 0.952018,0.226671 0.952018,0.952018 0,0.31734 -0.272006,0.498676 -0.272005,0.136003 -0.589344,0.136003 -0.952018,0 -2.040039,-0.09067 -1.088021,-0.04534 -2.176041,-0.09067 -1.088021,-0.04533 -1.994705,-0.04533 -0.906684,0 -2.085373,0.04533 -1.133354,0.04533 -2.357378,0.09067 -1.224023,0.09067 -2.221375,0.09067 -0.362674,0 -0.589345,-0.181337 -0.226671,-0.181337 -0.226671,-0.498676 0,-0.453342 0.226671,-0.589344 0.272005,-0.181337 0.725347,-0.31734 1.7227,-0.453342 2.357378,-1.042686 0.634679,-0.634679 0.634679,-1.949371 v -8.477494 q 0,-0.362674 -0.136002,-0.54401 -0.09067,-0.226671 -0.408008,-0.226671 h -12.10423 q -0.634679,0 -0.634679,0.725347 v 8.477494 q 0,1.269358 0.680013,1.94937 0.680013,0.634679 2.402712,1.088021 0.453342,0.136003 0.680013,0.31734 0.272006,0.136002 0.272006,0.589344 0,0.317339 -0.226671,0.498676 -0.181337,0.181337 -0.589345,0.181337 -0.997352,0 -2.221375,-0.09067 -1.224024,-0.04534 -2.402713,-0.09067 -1.178689,-0.04533 -2.085373,-0.04533 -0.906684,0 -2.040038,0.04533 -1.088021,0.04533 -2.221376,0.09067 -1.088021,0.09067 -1.994705,0.09067 z"
         style="font-weight:bold;font-size:45.33419418px;fill:#ffffff;stroke-width:0.37778491"
         id="path2898"
         inkscape:connector-curvature="0" />
    </g>
  </g>
</svg>
